<svg preserveAspectRatio="none" overflow="visible" style="display: block;" width="25.4876" height="24.076" viewBox="0 0 25.4876 24.076" fill="none" xmlns="http://www.w3.org/2000/svg">
<path id="&#235;&#176;&#148;&#236;&#167;&#128; &#236;&#149;&#132;&#236;&#157;&#180;&#236;&#189;&#152;" d="M19.5597 0.122631C20.7478 -0.296356 22.0337 0.395501 22.256 1.63142L25.4396 19.3521C25.7326 20.9828 24.6538 22.5728 23.0304 22.9039L17.5802 24.0152C15.9569 24.3461 14.4037 23.2931 14.1105 21.6627L12.7433 14.0552L11.3771 21.6627C11.084 23.2932 9.52973 24.3462 7.90639 24.0152L2.45717 22.9039C0.833725 22.5729 -0.244992 20.9829 0.0479943 19.3521L3.23159 1.63142C3.45389 0.395547 4.7398 -0.296348 5.92788 0.122631C8.2974 0.958213 10.2386 1.35055 12.7433 1.49275C15.2484 1.35056 17.1898 0.958365 19.5597 0.122631Z" fill="#E3EFCB"/>
</svg>
