<svg preserveAspectRatio="none" overflow="visible" style="display: block;" width="26.1296" height="27.5" viewBox="0 0 26.1296 27.5" fill="none" xmlns="http://www.w3.org/2000/svg">
<path id="Vector" d="M15.4733 0H19.8527C20.5526 0 21.2373 0.193875 21.8327 0.561L25.6387 2.90263C25.7888 2.99495 25.9127 3.12418 25.9986 3.27799C26.0845 3.4318 26.1296 3.60506 26.1296 3.78125V5.84375C26.1296 6.66426 25.8036 7.45117 25.2234 8.03136C24.6433 8.61155 23.8563 8.9375 23.0358 8.9375H22.6921V21.3771C24.063 21.5614 25.0227 22.1403 25.5727 23.1303C25.8793 23.6844 26.01 24.2853 26.0705 24.8394C26.1296 25.377 26.1296 25.9394 26.1296 26.4344V26.4688C26.1296 26.7423 26.0209 27.0046 25.8275 27.198C25.6341 27.3914 25.3718 27.5 25.0983 27.5H5.27496C4.12123 27.501 2.99904 27.1234 2.0806 26.4251C1.16217 25.7269 0.498237 24.7465 0.190695 23.6345C-0.116846 22.5225 -0.0510063 21.3403 0.378112 20.2694C0.807231 19.1984 1.57592 18.2978 2.56621 17.7059C2.80088 17.5651 3.08185 17.5233 3.34732 17.5897C3.61279 17.6561 3.84101 17.8253 3.98177 18.0599C4.12254 18.2946 4.16431 18.5756 4.09791 18.841C4.03151 19.1065 3.86238 19.3347 3.62771 19.4755C3.02473 19.8356 2.55659 20.3836 2.29515 21.0355C2.0337 21.6873 1.99341 22.407 2.18045 23.0839C2.36749 23.7609 2.77152 24.3578 3.33053 24.7829C3.88954 25.2081 4.57264 25.438 5.27496 25.4375C5.71358 25.4375 5.98583 25.3234 6.16733 25.1955C6.35846 25.0607 6.50833 24.8682 6.62246 24.6359C6.76743 24.3387 6.85468 24.0168 6.87958 23.6871V23.639L6.88508 23.4424C6.9251 22.4322 7.04464 21.4267 7.24258 20.4352C7.60008 18.6601 8.33846 16.3542 9.92658 14.7441C11.0926 13.5616 11.7265 11.8305 12.0537 10.1186C12.3796 8.42875 12.3796 6.886 12.3796 6.1875V3.09375C12.3796 2.27324 12.7055 1.48633 13.2857 0.906138C13.8659 0.325948 14.6528 0 15.4733 0ZM8.94208 23.7545V23.7627L8.94071 23.7765L8.93796 23.815L8.92833 23.9387C8.87601 24.4568 8.73995 24.963 8.52546 25.4375H18.4942C18.3705 24.7583 18.0267 24.0543 17.1013 23.6225L17.056 23.6005C16.858 23.5193 16.6498 23.4656 16.4372 23.441C16.1181 23.3932 15.796 23.3679 15.4733 23.3654L15.0842 23.3709L14.8903 23.3736H14.8078C14.6699 23.3805 14.5319 23.3597 14.4021 23.3122C14.2724 23.2648 14.1535 23.1918 14.0525 23.0975C13.9515 23.0032 13.8705 22.8896 13.8143 22.7634C13.7581 22.6373 13.7277 22.5011 13.7252 22.3629C13.7226 22.2248 13.7478 22.0876 13.7993 21.9594C13.8507 21.8312 13.9275 21.7146 14.0249 21.6166C14.1222 21.5187 14.2383 21.4413 14.3662 21.389C14.4941 21.3368 14.6312 21.3107 14.7693 21.3125L14.8546 21.3111L15.0512 21.3084L15.4733 21.3029C15.7965 21.3029 16.154 21.3249 16.5046 21.3675V18.2229C16.5046 17.9494 16.6132 17.6871 16.8066 17.4937C17 17.3003 17.2623 17.1916 17.5358 17.1916C17.8093 17.1916 18.0716 17.3003 18.265 17.4937C18.4584 17.6871 18.5671 17.9494 18.5671 18.2229V22.0784C20.0315 23.0161 20.4563 24.42 20.5787 25.4375H24.0492C24.0429 25.3135 24.0333 25.1897 24.0203 25.0662C23.975 24.6524 23.8911 24.3512 23.7687 24.1312C23.59 23.8095 23.1733 23.375 21.6608 23.375C21.3873 23.375 21.125 23.2664 20.9316 23.073C20.7382 22.8796 20.6296 22.6173 20.6296 22.3438V7.90625C20.6296 7.63275 20.7382 7.37044 20.9316 7.17705C21.125 6.98365 21.3873 6.875 21.6608 6.875H23.0358C23.3093 6.875 23.5716 6.76635 23.765 6.57295C23.9584 6.37956 24.0671 6.11725 24.0671 5.84375V4.35875L20.752 2.31687C20.4815 2.15066 20.1702 2.06261 19.8527 2.0625H15.472C15.1987 2.06286 14.9367 2.17167 14.7436 2.36503C14.5505 2.55839 14.4421 2.82048 14.4421 3.09375V6.16275C14.4498 6.44075 14.5488 6.70847 14.724 6.9245C14.8628 7.08125 15.0815 7.21875 15.4733 7.21875C15.868 7.21875 16.0962 7.07988 16.2378 6.91763C16.4195 6.69187 16.5142 6.40839 16.5046 6.11875C16.5046 5.84525 16.6132 5.58294 16.8066 5.38955C17 5.19615 17.2623 5.0875 17.5358 5.0875C17.8093 5.0875 18.0716 5.19615 18.265 5.38955C18.4584 5.58294 18.5671 5.84525 18.5671 6.11875C18.5671 6.8805 18.3237 7.66563 17.7888 8.27613C17.2388 8.9045 16.4358 9.28125 15.4733 9.28125C15.0425 9.27942 14.6506 9.20883 14.2977 9.0695C14.2434 9.55102 14.1709 10.0303 14.0805 10.5064C13.7202 12.3846 12.9791 14.5874 11.3951 16.1934C10.2332 17.3704 9.59658 19.1909 9.26521 20.8409C9.08226 21.7749 8.97421 22.7221 8.94208 23.6734V23.7545Z" fill="#9FA46D"/>
</svg>
