<svg preserveAspectRatio="none" overflow="visible" style="display: block;" width="194.206" height="34.7604" viewBox="0 0 194.206 34.7604" fill="none" xmlns="http://www.w3.org/2000/svg">
<g id="&#234;&#189;&#131;">
<g id="Vector">
<path fill-rule="evenodd" clip-rule="evenodd" d="M183.197 2.95553C183.314 2.13538 183.722 1.38487 184.348 0.841907C184.974 0.298945 185.774 0 186.603 0C187.431 0 188.232 0.298945 188.857 0.841907C189.483 1.38487 189.892 2.13538 190.008 2.95553C190.254 2.89991 190.506 2.87172 190.766 2.87096C191.532 2.87111 192.276 3.12699 192.881 3.59803C193.485 4.06906 193.914 4.7283 194.101 5.47123C194.288 6.21416 194.222 6.99825 193.913 7.6992C193.604 8.40015 193.069 8.97784 192.395 9.34068C192.755 10.1024 192.824 10.97 192.587 11.7789C192.35 12.5877 191.825 13.2816 191.111 13.7287C190.396 14.1758 189.543 14.3451 188.712 14.2045C187.881 14.0639 187.13 13.6231 186.603 12.9658C186.075 13.6231 185.325 14.0639 184.494 14.2045C183.663 14.3451 182.809 14.1758 182.095 13.7287C181.38 13.2816 180.855 12.5877 180.618 11.7789C180.382 10.97 180.45 10.1024 180.811 9.34068C180.136 8.97819 179.601 8.40063 179.292 7.69964C178.982 6.99866 178.916 6.21442 179.103 5.47137C179.29 4.72832 179.72 4.06904 180.324 3.59814C180.929 3.12724 181.673 2.87171 182.439 2.8721C182.701 2.8721 182.952 2.89991 183.197 2.95553ZM188.888 7.52353C188.888 8.98639 188.066 9.80925 186.603 9.80925C185.14 9.80925 184.317 8.98639 184.317 7.52353C184.317 6.06067 185.14 5.23782 186.603 5.23782C188.066 5.23782 188.888 6.06067 188.888 7.52353Z" fill="#FF9C56"/>
<path fill-rule="evenodd" clip-rule="evenodd" d="M170.781 17.1085C170.964 15.827 171.602 14.6543 172.58 13.8059C173.557 12.9575 174.808 12.4904 176.103 12.4904C177.397 12.4904 178.648 12.9575 179.626 13.8059C180.603 14.6543 181.242 15.827 181.424 17.1085C181.808 17.0216 182.202 16.9775 182.608 16.9763C183.805 16.9766 184.968 17.3764 185.912 18.1124C186.856 18.8484 187.527 19.8784 187.819 21.0392C188.112 22.2001 188.008 23.4252 187.525 24.5204C187.042 25.6157 186.207 26.5183 185.153 27.0852C185.716 28.2754 185.823 29.6311 185.453 30.8949C185.084 32.1588 184.263 33.2429 183.146 33.9415C182.03 34.6402 180.696 34.9047 179.398 34.685C178.1 34.4653 176.927 33.7765 176.103 32.7495C175.279 33.7765 174.106 34.4653 172.808 34.685C171.509 34.9047 170.175 34.6402 169.059 33.9415C167.943 33.2429 167.122 32.1588 166.752 30.8949C166.382 29.6311 166.489 28.2754 167.053 27.0852C165.998 26.5189 165.163 25.6164 164.679 24.5211C164.196 23.4259 164.092 22.2005 164.384 21.0395C164.676 19.8784 165.348 18.8483 166.293 18.1125C167.237 17.3768 168.4 16.9775 169.597 16.9781C170.006 16.9781 170.399 17.0216 170.781 17.1085ZM179.674 24.246C179.674 26.5317 178.388 27.8174 176.103 27.8174C173.817 27.8174 172.531 26.5317 172.531 24.246C172.531 21.9602 173.817 20.6745 176.103 20.6745C178.388 20.6745 179.674 21.9602 179.674 24.246Z" fill="#FFDF2C"/>
<path d="M176.102 12.9902C177.276 12.9902 178.411 13.4142 179.298 14.1836C180.184 14.953 180.764 16.0165 180.929 17.1787L181.006 17.7158L181.535 17.5957C181.881 17.5173 182.238 17.4777 182.608 17.4766C183.694 17.4768 184.748 17.8394 185.604 18.5068C186.46 19.1743 187.07 20.1083 187.335 21.1611C187.6 22.2139 187.505 23.325 187.067 24.3184C186.629 25.3117 185.872 26.1303 184.916 26.6445L184.498 26.8701L184.701 27.2988C185.212 28.3783 185.309 29.6086 184.973 30.7549C184.638 31.9008 183.894 32.884 182.882 33.5176C181.869 34.1512 180.659 34.3917 179.481 34.1924C178.304 33.9931 177.24 33.368 176.493 32.4365L176.102 31.9502L175.713 32.4365C174.965 33.368 173.902 33.9931 172.724 34.1924C171.547 34.3917 170.336 34.1512 169.324 33.5176C168.312 32.884 167.568 31.9009 167.232 30.7549C166.897 29.6086 166.994 28.3783 167.505 27.2988L167.708 26.8691L167.289 26.6445C166.332 26.1309 165.575 25.3125 165.136 24.3193C164.698 23.326 164.604 22.2141 164.869 21.1611C165.134 20.1084 165.743 19.1741 166.599 18.5068C167.456 17.8395 168.512 17.478 169.597 17.4785C169.97 17.4785 170.326 17.5174 170.671 17.5957L171.2 17.7168L171.276 17.1787C171.442 16.0165 172.021 14.953 172.908 14.1836C173.794 13.4144 174.929 12.9903 176.102 12.9902ZM176.102 20.1748C174.868 20.1749 173.832 20.5239 173.106 21.25C172.38 21.9761 172.031 23.0114 172.031 24.2461C172.031 25.4808 172.38 26.5161 173.106 27.2422C173.832 27.9683 174.868 28.3173 176.102 28.3174C177.337 28.3174 178.373 27.9683 179.099 27.2422C179.825 26.5161 180.175 25.4808 180.175 24.2461C180.175 23.0114 179.825 21.9761 179.099 21.25C178.373 20.5238 177.337 20.1748 176.102 20.1748ZM186.602 0.5C187.31 0.5 187.995 0.755683 188.53 1.21973C189.065 1.68375 189.414 2.32555 189.513 3.02637L189.59 3.56348L190.119 3.44336C190.327 3.39621 190.543 3.37184 190.766 3.37109C191.421 3.37129 192.057 3.58976 192.573 3.99219C193.089 4.39476 193.457 4.95881 193.617 5.59375C193.777 6.22839 193.72 6.89828 193.456 7.49707C193.192 8.09614 192.735 8.59029 192.158 8.90039L191.74 9.125L191.943 9.55469C192.251 10.2057 192.309 10.9474 192.107 11.6387C191.905 12.3298 191.456 12.9226 190.845 13.3047C190.235 13.6868 189.505 13.8321 188.795 13.7119C188.085 13.5917 187.444 13.2148 186.993 12.6533L186.602 12.167L186.213 12.6533C185.762 13.2148 185.121 13.5917 184.411 13.7119C183.701 13.8321 182.971 13.6868 182.36 13.3047C181.75 12.9226 181.301 12.3298 181.098 11.6387C180.896 10.9474 180.954 10.2057 181.262 9.55469L181.466 9.125L181.048 8.90039C180.471 8.59064 180.013 8.09702 179.749 7.49805C179.484 6.89908 179.428 6.22868 179.588 5.59375C179.748 4.95874 180.115 4.39462 180.632 3.99219C181.083 3.64028 181.627 3.42898 182.194 3.38184L182.439 3.37207C182.665 3.37207 182.879 3.39637 183.086 3.44336L183.616 3.56348L183.692 3.02637C183.792 2.32552 184.141 1.68375 184.676 1.21973C185.21 0.75578 185.894 0.500106 186.602 0.5ZM186.602 4.73828C185.779 4.73836 185.065 4.97102 184.557 5.47852C184.05 5.98607 183.817 6.70011 183.817 7.52344C183.817 8.34676 184.05 9.06079 184.557 9.56836C185.065 10.0759 185.779 10.3095 186.602 10.3096C187.426 10.3096 188.141 10.0759 188.648 9.56836C189.156 9.06079 189.388 8.34673 189.388 7.52344C189.388 6.70013 189.156 5.98607 188.648 5.47852C188.141 4.97093 187.426 4.73828 186.602 4.73828Z" stroke="#FCFCE9"/>
</g>
<g id="Vector_2">
<path fill-rule="evenodd" clip-rule="evenodd" d="M11.0085 2.95558C10.8918 2.13543 10.4831 1.38492 9.85743 0.841958C9.23176 0.298996 8.43117 5.05447e-05 7.60276 5.05447e-05C6.77435 5.05447e-05 5.97376 0.298996 5.34809 0.841958C4.72243 1.38492 4.31371 2.13543 4.19705 2.95558C3.95171 2.89996 3.69914 2.87177 3.43933 2.87101C2.67323 2.87116 1.9291 3.12704 1.32492 3.59808C0.720735 4.06911 0.291079 4.72836 0.104068 5.47128C-0.0829432 6.21421 -0.0166062 6.9983 0.29256 7.69925C0.601727 8.4002 1.13603 8.97789 1.81076 9.34073C1.45011 10.1024 1.38164 10.9701 1.61834 11.7789C1.85504 12.5878 2.38043 13.2816 3.09482 13.7287C3.80922 14.1759 4.6629 14.3452 5.49386 14.2046C6.32483 14.0639 7.07527 13.6232 7.60276 12.9659C8.13025 13.6232 8.88069 14.0639 9.71166 14.2046C10.5426 14.3452 11.3963 14.1759 12.1107 13.7287C12.8251 13.2816 13.3505 12.5878 13.5872 11.7789C13.8239 10.9701 13.7554 10.1024 13.3948 9.34073C14.0698 8.97824 14.6045 8.40068 14.9139 7.6997C15.2234 6.99871 15.2898 6.21447 15.1027 5.47142C14.9156 4.72837 14.4858 4.06909 13.8813 3.59819C13.2768 3.12729 12.5324 2.87176 11.7662 2.87215C11.5049 2.87215 11.253 2.89996 11.0085 2.95558ZM5.31705 7.52358C5.31705 8.98644 6.1399 9.8093 7.60276 9.8093C9.06562 9.8093 9.88847 8.98644 9.88847 7.52358C9.88847 6.06072 9.06562 5.23787 7.60276 5.23787C6.1399 5.23787 5.31705 6.06072 5.31705 7.52358Z" fill="#FF9C56"/>
<path fill-rule="evenodd" clip-rule="evenodd" d="M23.4242 17.1085C23.2419 15.827 22.6033 14.6544 21.6257 13.806C20.6481 12.9576 19.3972 12.4905 18.1028 12.4905C16.8084 12.4905 15.5574 12.9576 14.5798 13.806C13.6022 14.6544 12.9636 15.827 12.7813 17.1085C12.398 17.0216 12.0034 16.9776 11.5974 16.9764C10.4004 16.9766 9.23766 17.3764 8.29363 18.1124C7.34959 18.8484 6.67826 19.8785 6.38605 21.0393C6.09385 22.2001 6.1975 23.4253 6.68057 24.5205C7.16365 25.6157 7.99849 26.5184 9.05276 27.0853C8.48925 28.2755 8.38226 29.6311 8.7521 30.895C9.12194 32.1588 9.94287 33.2429 11.0591 33.9416C12.1753 34.6402 13.5092 34.9048 14.8076 34.685C16.106 34.4653 17.2786 33.7766 18.1028 32.7496C18.927 33.7766 20.0995 34.4653 21.3979 34.685C22.6963 34.9048 24.0302 34.6402 25.1464 33.9416C26.2626 33.2429 27.0836 32.1588 27.4534 30.895C27.8233 29.6311 27.7163 28.2755 27.1528 27.0853C28.2076 26.5189 29.043 25.6165 29.5265 24.5212C30.0099 23.4259 30.1138 22.2005 29.8215 21.0395C29.5291 19.8785 28.8575 18.8484 27.913 18.1126C26.9685 17.3768 25.8054 16.9775 24.6081 16.9782C24.1998 16.9782 23.8063 17.0216 23.4242 17.1085ZM14.5313 24.246C14.5313 26.5317 15.817 27.8174 18.1028 27.8174C20.3885 27.8174 21.6742 26.5317 21.6742 24.246C21.6742 21.9603 20.3885 20.6746 18.1028 20.6746C15.817 20.6746 14.5313 21.9603 14.5313 24.246Z" fill="#FFDF2C"/>
<path d="M18.1025 12.9903C19.2765 12.9903 20.4112 13.4142 21.2979 14.1836C22.1845 14.9531 22.7633 16.0166 22.9287 17.1788L23.0059 17.7168L23.5352 17.5958C23.8795 17.5174 24.236 17.4786 24.6084 17.4786C25.6941 17.478 26.7489 17.8397 27.6055 18.5069C28.462 19.1741 29.0718 20.1083 29.3369 21.1612C29.602 22.2142 29.5078 23.326 29.0693 24.3194C28.6309 25.3128 27.8727 26.1309 26.916 26.6446L26.4971 26.8692L26.7012 27.2989C27.2123 28.3784 27.3091 29.6087 26.9736 30.7549C26.6382 31.9011 25.8932 32.884 24.8809 33.5176C23.8685 34.1512 22.6589 34.3917 21.4814 34.1924C20.3039 33.9932 19.2407 33.368 18.4932 32.4366L18.1025 31.9502L17.7129 32.4366C16.9654 33.368 15.9021 33.9931 14.7246 34.1924C13.547 34.3917 12.3366 34.1513 11.3242 33.5176C10.312 32.8841 9.56791 31.9009 9.23242 30.7549C8.89699 29.6087 8.99379 28.3784 9.50488 27.2989L9.70801 26.8702L9.29004 26.6446C8.33385 26.1304 7.57583 25.3118 7.1377 24.3184C6.6997 23.3252 6.60611 22.2139 6.87109 21.1612C7.1361 20.1086 7.74461 19.1744 8.60059 18.5069C9.45633 17.8397 10.5107 17.4772 11.5957 17.4766C11.9662 17.4777 12.3245 17.5172 12.6709 17.5958L13.2002 17.7159L13.2764 17.1788C13.4417 16.0166 14.0207 14.9531 14.9072 14.1836C15.7938 13.4142 16.9286 12.9903 18.1025 12.9903ZM18.1025 20.1749C16.8677 20.1749 15.8326 20.5239 15.1064 21.2501C14.3804 21.9762 14.0312 23.0114 14.0312 24.2461C14.0313 25.481 14.3803 26.5161 15.1064 27.2422C15.8326 27.9684 16.8677 28.3174 18.1025 28.3174C19.3374 28.3174 20.3735 27.9684 21.0996 27.2422C21.8255 26.5161 22.1738 25.4808 22.1738 24.2461C22.1738 23.0115 21.8255 21.9762 21.0996 21.2501C20.3735 20.5239 19.3374 20.1749 18.1025 20.1749ZM7.60254 0.500051C8.31048 0.500051 8.99459 0.755813 9.5293 1.21978C10.064 1.68382 10.414 2.32547 10.5137 3.02642L10.5898 3.56353L11.1191 3.44341C11.326 3.39637 11.5412 3.37212 11.7666 3.37212C12.4213 3.37182 13.0577 3.58988 13.5742 3.99224C14.0908 4.39467 14.4583 4.95879 14.6182 5.5938C14.7779 6.22871 14.7204 6.89915 14.4561 7.4981C14.1916 8.09697 13.735 8.59073 13.1582 8.90044L12.7393 9.12505L12.9424 9.55474C13.2506 10.2057 13.3097 10.9474 13.1074 11.6387C12.9051 12.3298 12.4561 12.9226 11.8457 13.3047C11.2351 13.6869 10.5051 13.8321 9.79492 13.712C9.08498 13.5918 8.44395 13.2148 7.99316 12.6534L7.60254 12.167L7.21289 12.6534C6.76208 13.215 6.12025 13.5918 5.41016 13.712C4.70012 13.832 3.97079 13.6868 3.36035 13.3047C2.74989 12.9227 2.30097 12.3299 2.09863 11.6387C1.89634 10.9474 1.95448 10.2057 2.2627 9.55474L2.46582 9.12505L2.04785 8.90044C1.47119 8.59034 1.01423 8.09619 0.75 7.49712C0.485949 6.89828 0.429207 6.2285 0.588867 5.5938C0.748696 4.95886 1.11645 4.39481 1.63281 3.99224C2.14886 3.59004 2.78422 3.37148 3.43848 3.37114C3.66257 3.37184 3.87872 3.39621 4.08691 3.44341L4.61523 3.56353L4.69238 3.02642C4.79209 2.32552 5.14112 1.68381 5.67578 1.21978C6.21045 0.755782 6.89461 0.500104 7.60254 0.500051ZM7.60254 4.73833C6.77917 4.73837 6.06516 4.97103 5.55762 5.47857C5.05009 5.98613 4.8174 6.7001 4.81738 7.52349C4.81738 8.34687 5.05014 9.06083 5.55762 9.56841C6.06516 10.076 6.77917 10.3096 7.60254 10.3096C8.42597 10.3096 9.13988 10.076 9.64746 9.56841C10.155 9.06082 10.3887 8.34695 10.3887 7.52349C10.3887 6.70006 10.155 5.98613 9.64746 5.47857C9.13988 4.97109 8.42592 4.73833 7.60254 4.73833Z" stroke="#FCFCE9"/>
</g>
</g>
</svg>
